<svg xmlns="http://www.w3.org/2000/svg" xmlns:xlink="http://www.w3.org/1999/xlink" width="1280" zoomAndPan="magnify" viewBox="0 0 960 599.999999" height="800" preserveAspectRatio="xMidYMid meet" version="1.0"><defs><linearGradient x1="640" gradientTransform="matrix(0.75, 0, 0, 0.75, 0.00000048, 0.00002)" y1="0" x2="640" gradientUnits="userSpaceOnUse" y2="799.999967" id="e4181738dd"><stop stop-opacity="1" stop-color="rgb(85.099792%, 83.499146%, 95.698547%)" offset="0"/><stop stop-opacity="1" stop-color="rgb(85.215759%, 83.547974%, 95.658875%)" offset="0.015625"/><stop stop-opacity="1" stop-color="rgb(85.447693%, 83.647156%, 95.579529%)" offset="0.03125"/><stop stop-opacity="1" stop-color="rgb(85.681152%, 83.744812%, 95.500183%)" offset="0.046875"/><stop stop-opacity="1" stop-color="rgb(85.913086%, 83.843994%, 95.420837%)" offset="0.0625"/><stop stop-opacity="1" stop-color="rgb(86.146545%, 83.94165%, 95.339966%)" offset="0.078125"/><stop stop-opacity="1" stop-color="rgb(86.380005%, 84.040833%, 95.26062%)" offset="0.09375"/><stop stop-opacity="1" stop-color="rgb(86.611938%, 84.138489%, 95.181274%)" offset="0.109375"/><stop stop-opacity="1" stop-color="rgb(86.845398%, 84.237671%, 95.101929%)" offset="0.125"/><stop stop-opacity="1" stop-color="rgb(87.077332%, 84.335327%, 95.021057%)" offset="0.140625"/><stop stop-opacity="1" stop-color="rgb(87.310791%, 84.434509%, 94.941711%)" offset="0.15625"/><stop stop-opacity="1" stop-color="rgb(87.542725%, 84.532166%, 94.862366%)" offset="0.171875"/><stop stop-opacity="1" stop-color="rgb(87.776184%, 84.631348%, 94.78302%)" offset="0.1875"/><stop stop-opacity="1" stop-color="rgb(88.009644%, 84.729004%, 94.703674%)" offset="0.203125"/><stop stop-opacity="1" stop-color="rgb(88.241577%, 84.828186%, 94.622803%)" offset="0.21875"/><stop stop-opacity="1" stop-color="rgb(88.475037%, 84.925842%, 94.543457%)" offset="0.234375"/><stop stop-opacity="1" stop-color="rgb(88.70697%, 85.025024%, 94.464111%)" offset="0.25"/><stop stop-opacity="1" stop-color="rgb(88.94043%, 85.122681%, 94.384766%)" offset="0.265625"/><stop stop-opacity="1" stop-color="rgb(89.172363%, 85.221863%, 94.303894%)" offset="0.28125"/><stop stop-opacity="1" stop-color="rgb(89.405823%, 85.319519%, 94.224548%)" offset="0.296875"/><stop stop-opacity="1" stop-color="rgb(89.639282%, 85.418701%, 94.145203%)" offset="0.3125"/><stop stop-opacity="1" stop-color="rgb(89.871216%, 85.516357%, 94.065857%)" offset="0.328125"/><stop stop-opacity="1" stop-color="rgb(90.104675%, 85.61554%, 93.986511%)" offset="0.34375"/><stop stop-opacity="1" stop-color="rgb(90.336609%, 85.713196%, 93.90564%)" offset="0.359375"/><stop stop-opacity="1" stop-color="rgb(90.570068%, 85.812378%, 93.826294%)" offset="0.375"/><stop stop-opacity="1" stop-color="rgb(90.802002%, 85.910034%, 93.746948%)" offset="0.390625"/><stop stop-opacity="1" stop-color="rgb(91.035461%, 86.009216%, 93.667603%)" offset="0.40625"/><stop stop-opacity="1" stop-color="rgb(91.268921%, 86.106873%, 93.586731%)" offset="0.421875"/><stop stop-opacity="1" stop-color="rgb(91.500854%, 86.206055%, 93.507385%)" offset="0.4375"/><stop stop-opacity="1" stop-color="rgb(91.734314%, 86.303711%, 93.42804%)" offset="0.453125"/><stop stop-opacity="1" stop-color="rgb(91.966248%, 86.402893%, 93.348694%)" offset="0.46875"/><stop stop-opacity="1" stop-color="rgb(92.199707%, 86.500549%, 93.269348%)" offset="0.484375"/><stop stop-opacity="1" stop-color="rgb(92.431641%, 86.599731%, 93.188477%)" offset="0.5"/><stop stop-opacity="1" stop-color="rgb(92.6651%, 86.697388%, 93.109131%)" offset="0.515625"/><stop stop-opacity="1" stop-color="rgb(92.89856%, 86.79657%, 93.029785%)" offset="0.53125"/><stop stop-opacity="1" stop-color="rgb(93.130493%, 86.894226%, 92.950439%)" offset="0.546875"/><stop stop-opacity="1" stop-color="rgb(93.363953%, 86.993408%, 92.869568%)" offset="0.5625"/><stop stop-opacity="1" stop-color="rgb(93.595886%, 87.091064%, 92.790222%)" offset="0.578125"/><stop stop-opacity="1" stop-color="rgb(93.829346%, 87.190247%, 92.710876%)" offset="0.59375"/><stop stop-opacity="1" stop-color="rgb(94.062805%, 87.289429%, 92.631531%)" offset="0.609375"/><stop stop-opacity="1" stop-color="rgb(94.294739%, 87.387085%, 92.550659%)" offset="0.625"/><stop stop-opacity="1" stop-color="rgb(94.528198%, 87.486267%, 92.471313%)" offset="0.640625"/><stop stop-opacity="1" stop-color="rgb(94.760132%, 87.583923%, 92.391968%)" offset="0.65625"/><stop stop-opacity="1" stop-color="rgb(94.993591%, 87.683105%, 92.312622%)" offset="0.671875"/><stop stop-opacity="1" stop-color="rgb(95.225525%, 87.780762%, 92.233276%)" offset="0.6875"/><stop stop-opacity="1" stop-color="rgb(95.458984%, 87.879944%, 92.152405%)" offset="0.703125"/><stop stop-opacity="1" stop-color="rgb(95.692444%, 87.9776%, 92.073059%)" offset="0.71875"/><stop stop-opacity="1" stop-color="rgb(95.924377%, 88.076782%, 91.993713%)" offset="0.734375"/><stop stop-opacity="1" stop-color="rgb(96.157837%, 88.174438%, 91.914368%)" offset="0.75"/><stop stop-opacity="1" stop-color="rgb(96.389771%, 88.273621%, 91.833496%)" offset="0.765625"/><stop stop-opacity="1" stop-color="rgb(96.62323%, 88.371277%, 91.75415%)" offset="0.78125"/><stop stop-opacity="1" stop-color="rgb(96.855164%, 88.470459%, 91.674805%)" offset="0.796875"/><stop stop-opacity="1" stop-color="rgb(97.088623%, 88.568115%, 91.595459%)" offset="0.8125"/><stop stop-opacity="1" stop-color="rgb(97.322083%, 88.667297%, 91.516113%)" offset="0.828125"/><stop stop-opacity="1" stop-color="rgb(97.554016%, 88.764954%, 91.435242%)" offset="0.84375"/><stop stop-opacity="1" stop-color="rgb(97.787476%, 88.864136%, 91.355896%)" offset="0.859375"/><stop stop-opacity="1" stop-color="rgb(98.019409%, 88.961792%, 91.27655%)" offset="0.875"/><stop stop-opacity="1" stop-color="rgb(98.252869%, 89.060974%, 91.197205%)" offset="0.890625"/><stop stop-opacity="1" stop-color="rgb(98.484802%, 89.15863%, 91.116333%)" offset="0.90625"/><stop stop-opacity="1" stop-color="rgb(98.718262%, 89.257812%, 91.036987%)" offset="0.921875"/><stop stop-opacity="1" stop-color="rgb(98.951721%, 89.355469%, 90.957642%)" offset="0.9375"/><stop stop-opacity="1" stop-color="rgb(99.183655%, 89.454651%, 90.878296%)" offset="0.953125"/><stop stop-opacity="1" stop-color="rgb(99.417114%, 89.552307%, 90.79895%)" offset="0.96875"/><stop stop-opacity="1" stop-color="rgb(99.649048%, 89.651489%, 90.718079%)" offset="0.984375"/><stop stop-opacity="1" stop-color="rgb(99.882507%, 89.749146%, 90.638733%)" offset="1"/></linearGradient><clipPath id="a6363fa5e5"><path d="M 5 521 L 193 521 L 193 600 L 5 600 Z M 5 521 " clip-rule="nonzero"/></clipPath><clipPath id="a2e29b06de"><path d="M 116.820312 483.65625 L 232.691406 633.917969 L 82.425781 749.789062 L -33.441406 599.523438 Z M 116.820312 483.65625 " clip-rule="nonzero"/></clipPath><clipPath id="115bb0fa2b"><path d="M 116.820312 483.65625 L 232.691406 633.917969 L 82.425781 749.789062 L -33.441406 599.523438 Z M 116.820312 483.65625 " clip-rule="nonzero"/></clipPath><clipPath id="bb436ed77d"><path d="M 155.871094 688.894531 C 154.664062 689.828125 153.433594 690.726562 152.179688 691.597656 C 150.929688 692.46875 149.65625 693.308594 148.363281 694.117188 C 147.070312 694.925781 145.757812 695.703125 144.425781 696.445312 C 143.09375 697.191406 141.746094 697.902344 140.378906 698.578125 C 139.015625 699.257812 137.632812 699.902344 136.234375 700.511719 C 134.835938 701.121094 133.425781 701.695312 132 702.238281 C 130.570312 702.777344 129.132812 703.28125 127.683594 703.753906 C 126.230469 704.222656 124.769531 704.65625 123.296875 705.054688 C 121.824219 705.453125 120.34375 705.816406 118.855469 706.140625 C 117.363281 706.464844 115.867188 706.753906 114.363281 707.007812 C 112.859375 707.257812 111.351562 707.472656 109.835938 707.652344 C 108.320312 707.828125 106.804688 707.96875 105.28125 708.074219 C 103.757812 708.175781 102.238281 708.242188 100.710938 708.269531 C 99.1875 708.300781 97.664062 708.289062 96.136719 708.246094 C 94.613281 708.199219 93.089844 708.113281 91.570312 707.992188 C 90.050781 707.871094 88.535156 707.714844 87.023438 707.519531 C 85.507812 707.324219 84.003906 707.089844 82.5 706.820312 C 81 706.550781 79.507812 706.246094 78.019531 705.902344 C 76.535156 705.558594 75.058594 705.179688 73.589844 704.765625 C 72.121094 704.351562 70.667969 703.898438 69.222656 703.414062 C 67.777344 702.925781 66.34375 702.402344 64.921875 701.847656 C 63.503906 701.289062 62.097656 700.699219 60.707031 700.070312 C 59.316406 699.445312 57.941406 698.785156 56.585938 698.09375 C 55.226562 697.398438 53.886719 696.671875 52.5625 695.914062 C 51.242188 695.152344 49.9375 694.363281 48.652344 693.539062 C 47.371094 692.714844 46.109375 691.859375 44.867188 690.976562 C 43.625 690.089844 42.40625 689.175781 41.207031 688.230469 C 40.011719 687.285156 38.839844 686.308594 37.6875 685.308594 C 36.539062 684.304688 35.417969 683.273438 34.316406 682.214844 C 33.21875 681.15625 32.148438 680.074219 31.101562 678.964844 C 30.058594 677.851562 29.039062 676.71875 28.050781 675.554688 C 27.0625 674.394531 26.101562 673.210938 25.167969 672.003906 C 24.238281 670.796875 23.335938 669.566406 22.464844 668.3125 C 21.59375 667.0625 20.753906 665.789062 19.949219 664.496094 C 19.140625 663.203125 18.363281 661.890625 17.617188 660.558594 C 16.875 659.226562 16.164062 657.878906 15.484375 656.511719 C 14.808594 655.148438 14.164062 653.765625 13.554688 652.367188 C 12.945312 650.96875 12.371094 649.558594 11.828125 648.132812 C 11.289062 646.707031 10.78125 645.265625 10.3125 643.816406 C 9.84375 642.367188 9.410156 640.902344 9.011719 639.429688 C 8.613281 637.960938 8.25 636.476562 7.925781 634.988281 C 7.601562 633.5 7.3125 632 7.058594 630.496094 C 6.808594 628.992188 6.59375 627.484375 6.414062 625.96875 C 6.234375 624.453125 6.09375 622.9375 5.992188 621.414062 C 5.890625 619.894531 5.824219 618.371094 5.792969 616.84375 C 5.765625 615.320312 5.773438 613.796875 5.820312 612.269531 C 5.867188 610.746094 5.949219 609.222656 6.070312 607.703125 C 6.191406 606.183594 6.351562 604.667969 6.546875 603.15625 C 6.742188 601.640625 6.972656 600.136719 7.242188 598.632812 C 7.511719 597.132812 7.820312 595.640625 8.164062 594.152344 C 8.503906 592.667969 8.882812 591.191406 9.300781 589.722656 C 9.714844 588.257812 10.164062 586.800781 10.652344 585.355469 C 11.140625 583.910156 11.660156 582.476562 12.21875 581.058594 C 12.777344 579.636719 13.367188 578.230469 13.992188 576.839844 C 14.621094 575.449219 15.28125 574.078125 15.972656 572.71875 C 16.667969 571.359375 17.394531 570.019531 18.152344 568.695312 C 18.910156 567.375 19.703125 566.070312 20.527344 564.789062 C 21.351562 563.503906 22.203125 562.242188 23.089844 561 C 23.976562 559.757812 24.890625 558.539062 25.835938 557.339844 C 26.78125 556.144531 27.753906 554.972656 28.757812 553.824219 C 29.761719 552.671875 30.792969 551.550781 31.847656 550.453125 C 32.90625 549.351562 33.992188 548.28125 35.101562 547.234375 C 36.210938 546.191406 37.347656 545.171875 38.507812 544.183594 C 39.667969 543.195312 40.855469 542.234375 42.0625 541.304688 C 43.269531 540.371094 44.5 539.472656 45.75 538.601562 C 47.003906 537.730469 48.277344 536.890625 49.570312 536.082031 C 50.863281 535.273438 52.175781 534.496094 53.503906 533.753906 C 54.835938 533.007812 56.1875 532.296875 57.550781 531.621094 C 58.917969 530.941406 60.300781 530.296875 61.699219 529.6875 C 63.097656 529.078125 64.507812 528.503906 65.933594 527.960938 C 67.359375 527.421875 68.796875 526.917969 70.25 526.445312 C 71.699219 525.976562 73.160156 525.542969 74.632812 525.144531 C 76.105469 524.746094 77.585938 524.382812 79.078125 524.058594 C 80.566406 523.734375 82.0625 523.445312 83.566406 523.191406 C 85.070312 522.941406 86.582031 522.726562 88.097656 522.546875 C 89.609375 522.371094 91.128906 522.230469 92.652344 522.125 C 94.171875 522.023438 95.695312 521.957031 97.21875 521.925781 C 98.746094 521.898438 100.269531 521.90625 101.792969 521.953125 C 103.320312 522 104.839844 522.085938 106.359375 522.207031 C 107.882812 522.328125 109.398438 522.484375 110.910156 522.679688 C 112.421875 522.875 113.929688 523.109375 115.429688 523.378906 C 116.933594 523.648438 118.425781 523.953125 119.910156 524.296875 C 121.398438 524.636719 122.875 525.019531 124.339844 525.433594 C 125.808594 525.847656 127.265625 526.300781 128.710938 526.785156 C 130.15625 527.273438 131.589844 527.792969 133.007812 528.351562 C 134.429688 528.910156 135.832031 529.5 137.222656 530.125 C 138.613281 530.753906 139.988281 531.414062 141.347656 532.105469 C 142.707031 532.800781 144.046875 533.527344 145.367188 534.285156 C 146.691406 535.046875 147.996094 535.835938 149.277344 536.660156 C 150.5625 537.484375 151.824219 538.335938 153.066406 539.222656 C 154.308594 540.109375 155.527344 541.023438 156.722656 541.96875 C 157.921875 542.914062 159.09375 543.886719 160.242188 544.890625 C 161.390625 545.894531 162.515625 546.925781 163.613281 547.984375 C 164.710938 549.039062 165.785156 550.125 166.828125 551.234375 C 167.875 552.347656 168.890625 553.480469 169.882812 554.640625 C 170.871094 555.804688 171.832031 556.988281 172.761719 558.195312 C 173.695312 559.402344 174.59375 560.632812 175.464844 561.882812 C 176.335938 563.136719 177.175781 564.410156 177.984375 565.703125 C 178.792969 566.996094 179.570312 568.308594 180.3125 569.640625 C 181.058594 570.96875 181.769531 572.320312 182.445312 573.683594 C 183.125 575.050781 183.765625 576.433594 184.378906 577.832031 C 184.988281 579.230469 185.5625 580.640625 186.101562 582.066406 C 186.644531 583.492188 187.148438 584.929688 187.617188 586.382812 C 188.089844 587.832031 188.523438 589.292969 188.921875 590.765625 C 189.320312 592.238281 189.679688 593.71875 190.007812 595.210938 C 190.332031 596.699219 190.621094 598.199219 190.871094 599.703125 C 191.125 601.207031 191.339844 602.714844 191.519531 604.230469 C 191.695312 605.746094 191.835938 607.261719 191.941406 608.785156 C 192.042969 610.304688 192.109375 611.828125 192.136719 613.355469 C 192.167969 614.878906 192.15625 616.402344 192.109375 617.925781 C 192.066406 619.453125 191.980469 620.972656 191.859375 622.496094 C 191.738281 624.015625 191.582031 625.53125 191.386719 627.042969 C 191.191406 628.554688 190.957031 630.0625 190.6875 631.5625 C 190.417969 633.066406 190.113281 634.558594 189.769531 636.042969 C 189.425781 637.53125 189.046875 639.007812 188.632812 640.476562 C 188.21875 641.941406 187.765625 643.398438 187.28125 644.84375 C 186.792969 646.289062 186.269531 647.722656 185.714844 649.140625 C 185.15625 650.5625 184.566406 651.964844 183.9375 653.355469 C 183.3125 654.746094 182.652344 656.121094 181.957031 657.480469 C 181.265625 658.839844 180.539062 660.179688 179.78125 661.5 C 179.019531 662.824219 178.230469 664.128906 177.40625 665.410156 C 176.582031 666.695312 175.726562 667.957031 174.84375 669.199219 C 173.957031 670.441406 173.042969 671.660156 172.097656 672.855469 C 171.152344 674.054688 170.175781 675.226562 169.175781 676.375 C 168.171875 677.523438 167.140625 678.648438 166.082031 679.746094 C 165.023438 680.84375 163.941406 681.917969 162.828125 682.960938 C 161.71875 684.007812 160.582031 685.023438 159.421875 686.015625 C 158.261719 687.003906 157.078125 687.964844 155.871094 688.894531 Z M 155.871094 688.894531 " clip-rule="nonzero"/></clipPath><linearGradient x1="19.132" gradientTransform="matrix(2.974308, 3.857216, -3.857216, 2.974308, 116.822075, 483.655046)" y1="-7.455076" x2="19.132" gradientUnits="userSpaceOnUse" y2="32.64178" id="6a0864ce9f"><stop stop-opacity="1" stop-color="rgb(99.198914%, 74.899292%, 69.799805%)" offset="0"/><stop stop-opacity="1" stop-color="rgb(99.198914%, 74.899292%, 69.799805%)" offset="0.125"/><stop stop-opacity="1" stop-color="rgb(99.198914%, 74.899292%, 69.799805%)" offset="0.1875"/><stop stop-opacity="1" stop-color="rgb(99.203491%, 75.042725%, 69.972229%)" offset="0.203125"/><stop stop-opacity="1" stop-color="rgb(99.211121%, 75.289917%, 70.269775%)" offset="0.210937"/><stop stop-opacity="1" stop-color="rgb(99.21875%, 75.495911%, 70.516968%)" offset="0.21875"/><stop stop-opacity="1" stop-color="rgb(99.224854%, 75.700378%, 70.76416%)" offset="0.226562"/><stop stop-opacity="1" stop-color="rgb(99.230957%, 75.906372%, 71.011353%)" offset="0.234375"/><stop stop-opacity="1" stop-color="rgb(99.237061%, 76.112366%, 71.258545%)" offset="0.242188"/><stop stop-opacity="1" stop-color="rgb(99.24469%, 76.316833%, 71.505737%)" offset="0.25"/><stop stop-opacity="1" stop-color="rgb(99.250793%, 76.522827%, 71.75293%)" offset="0.257812"/><stop stop-opacity="1" stop-color="rgb(99.256897%, 76.728821%, 72.000122%)" offset="0.265625"/><stop stop-opacity="1" stop-color="rgb(99.264526%, 76.933289%, 72.247314%)" offset="0.273437"/><stop stop-opacity="1" stop-color="rgb(99.27063%, 77.139282%, 72.494507%)" offset="0.28125"/><stop stop-opacity="1" stop-color="rgb(99.276733%, 77.345276%, 72.741699%)" offset="0.289062"/><stop stop-opacity="1" stop-color="rgb(99.282837%, 77.549744%, 72.988892%)" offset="0.296875"/><stop stop-opacity="1" stop-color="rgb(99.290466%, 77.755737%, 73.236084%)" offset="0.304687"/><stop stop-opacity="1" stop-color="rgb(99.29657%, 77.961731%, 73.483276%)" offset="0.3125"/><stop stop-opacity="1" stop-color="rgb(99.302673%, 78.166199%, 73.730469%)" offset="0.320312"/><stop stop-opacity="1" stop-color="rgb(99.310303%, 78.372192%, 73.977661%)" offset="0.328125"/><stop stop-opacity="1" stop-color="rgb(99.316406%, 78.578186%, 74.224854%)" offset="0.335938"/><stop stop-opacity="1" stop-color="rgb(99.32251%, 78.782654%, 74.473572%)" offset="0.34375"/><stop stop-opacity="1" stop-color="rgb(99.328613%, 78.988647%, 74.720764%)" offset="0.351562"/><stop stop-opacity="1" stop-color="rgb(99.336243%, 79.194641%, 74.967957%)" offset="0.359375"/><stop stop-opacity="1" stop-color="rgb(99.342346%, 79.399109%, 75.215149%)" offset="0.367188"/><stop stop-opacity="1" stop-color="rgb(99.34845%, 79.605103%, 75.462341%)" offset="0.375"/><stop stop-opacity="1" stop-color="rgb(99.356079%, 79.811096%, 75.709534%)" offset="0.382812"/><stop stop-opacity="1" stop-color="rgb(99.362183%, 80.015564%, 75.956726%)" offset="0.390625"/><stop stop-opacity="1" stop-color="rgb(99.368286%, 80.221558%, 76.203918%)" offset="0.398438"/><stop stop-opacity="1" stop-color="rgb(99.375916%, 80.427551%, 76.451111%)" offset="0.40625"/><stop stop-opacity="1" stop-color="rgb(99.382019%, 80.632019%, 76.698303%)" offset="0.414062"/><stop stop-opacity="1" stop-color="rgb(99.388123%, 80.838013%, 76.945496%)" offset="0.421875"/><stop stop-opacity="1" stop-color="rgb(99.394226%, 81.044006%, 77.192688%)" offset="0.429688"/><stop stop-opacity="1" stop-color="rgb(99.401855%, 81.248474%, 77.43988%)" offset="0.4375"/><stop stop-opacity="1" stop-color="rgb(99.407959%, 81.454468%, 77.687073%)" offset="0.445313"/><stop stop-opacity="1" stop-color="rgb(99.414062%, 81.660461%, 77.934265%)" offset="0.453125"/><stop stop-opacity="1" stop-color="rgb(99.421692%, 81.864929%, 78.181458%)" offset="0.460938"/><stop stop-opacity="1" stop-color="rgb(99.427795%, 82.070923%, 78.42865%)" offset="0.46875"/><stop stop-opacity="1" stop-color="rgb(99.433899%, 82.276917%, 78.675842%)" offset="0.476563"/><stop stop-opacity="1" stop-color="rgb(99.440002%, 82.481384%, 78.923035%)" offset="0.484375"/><stop stop-opacity="1" stop-color="rgb(99.447632%, 82.687378%, 79.170227%)" offset="0.492187"/><stop stop-opacity="1" stop-color="rgb(99.453735%, 82.893372%, 79.417419%)" offset="0.5"/><stop stop-opacity="1" stop-color="rgb(99.459839%, 83.097839%, 79.664612%)" offset="0.507812"/><stop stop-opacity="1" stop-color="rgb(99.467468%, 83.303833%, 79.911804%)" offset="0.515625"/><stop stop-opacity="1" stop-color="rgb(99.473572%, 83.509827%, 80.158997%)" offset="0.523438"/><stop stop-opacity="1" stop-color="rgb(99.479675%, 83.714294%, 80.406189%)" offset="0.53125"/><stop stop-opacity="1" stop-color="rgb(99.487305%, 83.920288%, 80.653381%)" offset="0.539062"/><stop stop-opacity="1" stop-color="rgb(99.493408%, 84.126282%, 80.900574%)" offset="0.546875"/><stop stop-opacity="1" stop-color="rgb(99.499512%, 84.33075%, 81.147766%)" offset="0.554688"/><stop stop-opacity="1" stop-color="rgb(99.505615%, 84.536743%, 81.394958%)" offset="0.5625"/><stop stop-opacity="1" stop-color="rgb(99.513245%, 84.742737%, 81.642151%)" offset="0.570312"/><stop stop-opacity="1" stop-color="rgb(99.519348%, 84.947205%, 81.889343%)" offset="0.578125"/><stop stop-opacity="1" stop-color="rgb(99.525452%, 85.153198%, 82.136536%)" offset="0.585938"/><stop stop-opacity="1" stop-color="rgb(99.533081%, 85.359192%, 82.385254%)" offset="0.59375"/><stop stop-opacity="1" stop-color="rgb(99.539185%, 85.56366%, 82.632446%)" offset="0.601562"/><stop stop-opacity="1" stop-color="rgb(99.545288%, 85.769653%, 82.879639%)" offset="0.609375"/><stop stop-opacity="1" stop-color="rgb(99.551392%, 85.975647%, 83.126831%)" offset="0.617188"/><stop stop-opacity="1" stop-color="rgb(99.559021%, 86.180115%, 83.374023%)" offset="0.625"/><stop stop-opacity="1" stop-color="rgb(99.565125%, 86.386108%, 83.621216%)" offset="0.632812"/><stop stop-opacity="1" stop-color="rgb(99.571228%, 86.592102%, 83.868408%)" offset="0.640625"/><stop stop-opacity="1" stop-color="rgb(99.578857%, 86.79657%, 84.115601%)" offset="0.648438"/><stop stop-opacity="1" stop-color="rgb(99.584961%, 87.002563%, 84.362793%)" offset="0.65625"/><stop stop-opacity="1" stop-color="rgb(99.591064%, 87.208557%, 84.609985%)" offset="0.664062"/><stop stop-opacity="1" stop-color="rgb(99.597168%, 87.413025%, 84.857178%)" offset="0.671875"/><stop stop-opacity="1" stop-color="rgb(99.604797%, 87.619019%, 85.10437%)" offset="0.679687"/><stop stop-opacity="1" stop-color="rgb(99.610901%, 87.825012%, 85.351562%)" offset="0.6875"/><stop stop-opacity="1" stop-color="rgb(99.617004%, 88.02948%, 85.598755%)" offset="0.695312"/><stop stop-opacity="1" stop-color="rgb(99.624634%, 88.235474%, 85.845947%)" offset="0.703125"/><stop stop-opacity="1" stop-color="rgb(99.630737%, 88.441467%, 86.09314%)" offset="0.710937"/><stop stop-opacity="1" stop-color="rgb(99.636841%, 88.645935%, 86.340332%)" offset="0.71875"/><stop stop-opacity="1" stop-color="rgb(99.64447%, 88.851929%, 86.587524%)" offset="0.726562"/><stop stop-opacity="1" stop-color="rgb(99.650574%, 89.057922%, 86.834717%)" offset="0.734375"/><stop stop-opacity="1" stop-color="rgb(99.656677%, 89.26239%, 87.081909%)" offset="0.742187"/><stop stop-opacity="1" stop-color="rgb(99.662781%, 89.468384%, 87.329102%)" offset="0.75"/><stop stop-opacity="1" stop-color="rgb(99.67041%, 89.674377%, 87.576294%)" offset="0.757812"/><stop stop-opacity="1" stop-color="rgb(99.676514%, 89.878845%, 87.823486%)" offset="0.765625"/><stop stop-opacity="1" stop-color="rgb(99.682617%, 90.084839%, 88.070679%)" offset="0.773437"/><stop stop-opacity="1" stop-color="rgb(99.690247%, 90.290833%, 88.317871%)" offset="0.78125"/><stop stop-opacity="1" stop-color="rgb(99.69635%, 90.4953%, 88.565063%)" offset="0.789062"/><stop stop-opacity="1" stop-color="rgb(99.702454%, 90.701294%, 88.812256%)" offset="0.796875"/><stop stop-opacity="1" stop-color="rgb(99.708557%, 90.907288%, 89.059448%)" offset="0.804687"/><stop stop-opacity="1" stop-color="rgb(99.716187%, 91.111755%, 89.306641%)" offset="0.8125"/><stop stop-opacity="1" stop-color="rgb(99.72229%, 91.317749%, 89.553833%)" offset="0.820312"/><stop stop-opacity="1" stop-color="rgb(99.728394%, 91.523743%, 89.801025%)" offset="0.828125"/><stop stop-opacity="1" stop-color="rgb(99.736023%, 91.72821%, 90.048218%)" offset="0.835937"/><stop stop-opacity="1" stop-color="rgb(99.742126%, 91.934204%, 90.29541%)" offset="0.84375"/><stop stop-opacity="1" stop-color="rgb(99.74823%, 92.140198%, 90.544128%)" offset="0.851562"/><stop stop-opacity="1" stop-color="rgb(99.754333%, 92.344666%, 90.791321%)" offset="0.859375"/><stop stop-opacity="1" stop-color="rgb(99.761963%, 92.550659%, 91.038513%)" offset="0.867187"/><stop stop-opacity="1" stop-color="rgb(99.768066%, 92.756653%, 91.285706%)" offset="0.875"/><stop stop-opacity="1" stop-color="rgb(99.77417%, 92.961121%, 91.532898%)" offset="0.882812"/><stop stop-opacity="1" stop-color="rgb(99.781799%, 93.167114%, 91.78009%)" offset="0.890625"/><stop stop-opacity="1" stop-color="rgb(99.787903%, 93.373108%, 92.027283%)" offset="0.898437"/><stop stop-opacity="1" stop-color="rgb(99.794006%, 93.577576%, 92.274475%)" offset="0.90625"/><stop stop-opacity="1" stop-color="rgb(99.801636%, 93.783569%, 92.521667%)" offset="0.914062"/><stop stop-opacity="1" stop-color="rgb(99.807739%, 93.989563%, 92.76886%)" offset="0.921875"/><stop stop-opacity="1" stop-color="rgb(99.813843%, 94.194031%, 93.016052%)" offset="0.929687"/><stop stop-opacity="1" stop-color="rgb(99.819946%, 94.400024%, 93.263245%)" offset="0.9375"/><stop stop-opacity="1" stop-color="rgb(99.827576%, 94.606018%, 93.510437%)" offset="0.945312"/><stop stop-opacity="1" stop-color="rgb(99.833679%, 94.810486%, 93.757629%)" offset="0.953125"/><stop stop-opacity="1" stop-color="rgb(99.839783%, 95.016479%, 94.004822%)" offset="0.960937"/><stop stop-opacity="1" stop-color="rgb(99.847412%, 95.222473%, 94.252014%)" offset="0.96875"/><stop stop-opacity="1" stop-color="rgb(99.853516%, 95.426941%, 94.499207%)" offset="0.976562"/><stop stop-opacity="1" stop-color="rgb(99.859619%, 95.632935%, 94.746399%)" offset="0.984375"/><stop stop-opacity="1" stop-color="rgb(99.865723%, 95.838928%, 94.993591%)" offset="0.992187"/><stop stop-opacity="1" stop-color="rgb(99.873352%, 96.043396%, 95.240784%)" offset="1"/></linearGradient><clipPath id="2524c52fab"><path d="M 57 556 L 245 556 L 245 600 L 57 600 Z M 57 556 " clip-rule="nonzero"/></clipPath><clipPath id="99ff809a73"><path d="M 168.699219 518.253906 L 284.570312 668.519531 L 134.304688 784.386719 L 18.4375 634.125 Z M 168.699219 518.253906 " clip-rule="nonzero"/></clipPath><clipPath id="176640f488"><path d="M 168.699219 518.253906 L 284.570312 668.519531 L 134.304688 784.386719 L 18.4375 634.125 Z M 168.699219 518.253906 " clip-rule="nonzero"/></clipPath><clipPath id="c94ee5f486"><path d="M 207.75 723.496094 C 206.542969 724.425781 205.3125 725.328125 204.058594 726.199219 C 202.808594 727.070312 201.535156 727.910156 200.242188 728.71875 C 198.949219 729.523438 197.636719 730.300781 196.304688 731.046875 C 194.972656 731.789062 193.625 732.5 192.257812 733.179688 C 190.894531 733.855469 189.511719 734.5 188.113281 735.109375 C 186.714844 735.71875 185.304688 736.292969 183.875 736.835938 C 182.449219 737.375 181.011719 737.882812 179.5625 738.351562 C 178.109375 738.820312 176.648438 739.253906 175.175781 739.652344 C 173.703125 740.050781 172.222656 740.414062 170.734375 740.738281 C 169.242188 741.066406 167.746094 741.351562 166.242188 741.605469 C 164.738281 741.855469 163.230469 742.074219 161.714844 742.25 C 160.199219 742.429688 158.679688 742.570312 157.160156 742.671875 C 155.636719 742.777344 154.113281 742.839844 152.589844 742.871094 C 151.066406 742.898438 149.539062 742.890625 148.015625 742.84375 C 146.492188 742.796875 144.96875 742.714844 143.449219 742.59375 C 141.929688 742.472656 140.414062 742.3125 138.898438 742.117188 C 137.386719 741.921875 135.882812 741.691406 134.378906 741.421875 C 132.878906 741.152344 131.386719 740.84375 129.898438 740.5 C 128.414062 740.160156 126.9375 739.78125 125.46875 739.363281 C 124 738.949219 122.546875 738.5 121.101562 738.011719 C 119.65625 737.523438 118.222656 737.003906 116.800781 736.445312 C 115.382812 735.886719 113.976562 735.296875 112.585938 734.671875 C 111.195312 734.042969 109.820312 733.386719 108.464844 732.691406 C 107.105469 731.996094 105.765625 731.269531 104.441406 730.511719 C 103.121094 729.753906 101.816406 728.960938 100.53125 728.136719 C 99.25 727.3125 97.984375 726.460938 96.746094 725.574219 C 95.503906 724.6875 94.285156 723.773438 93.085938 722.828125 C 91.890625 721.882812 90.71875 720.910156 89.566406 719.90625 C 88.417969 718.902344 87.296875 717.875 86.195312 716.816406 C 85.097656 715.757812 84.027344 714.671875 82.980469 713.5625 C 81.9375 712.453125 80.917969 711.316406 79.929688 710.15625 C 78.941406 708.996094 77.980469 707.808594 77.046875 706.601562 C 76.117188 705.394531 75.214844 704.164062 74.34375 702.914062 C 73.472656 701.660156 72.632812 700.390625 71.824219 699.09375 C 71.019531 697.800781 70.242188 696.488281 69.496094 695.160156 C 68.753906 693.828125 68.042969 692.480469 67.363281 691.113281 C 66.6875 689.746094 66.042969 688.363281 65.433594 686.964844 C 64.824219 685.570312 64.25 684.15625 63.707031 682.730469 C 63.167969 681.304688 62.660156 679.867188 62.191406 678.414062 C 61.722656 676.964844 61.289062 675.503906 60.890625 674.03125 C 60.492188 672.558594 60.128906 671.078125 59.804688 669.585938 C 59.476562 668.097656 59.191406 666.601562 58.9375 665.097656 C 58.6875 663.59375 58.46875 662.082031 58.292969 660.566406 C 58.113281 659.054688 57.972656 657.535156 57.871094 656.011719 C 57.765625 654.492188 57.703125 652.96875 57.671875 651.445312 C 57.644531 649.917969 57.652344 648.394531 57.699219 646.871094 C 57.746094 645.347656 57.828125 643.824219 57.949219 642.304688 C 58.070312 640.78125 58.230469 639.265625 58.425781 637.753906 C 58.621094 636.242188 58.851562 634.734375 59.121094 633.234375 C 59.390625 631.734375 59.699219 630.238281 60.042969 628.753906 C 60.382812 627.265625 60.761719 625.789062 61.179688 624.324219 C 61.59375 622.855469 62.042969 621.398438 62.53125 619.953125 C 63.019531 618.507812 63.539062 617.074219 64.097656 615.65625 C 64.65625 614.234375 65.246094 612.832031 65.871094 611.441406 C 66.5 610.050781 67.15625 608.675781 67.851562 607.316406 C 68.546875 605.957031 69.273438 604.617188 70.03125 603.296875 C 70.789062 601.972656 71.582031 600.671875 72.40625 599.386719 C 73.230469 598.101562 74.082031 596.839844 74.96875 595.597656 C 75.855469 594.355469 76.769531 593.136719 77.714844 591.941406 C 78.660156 590.742188 79.632812 589.570312 80.636719 588.421875 C 81.640625 587.273438 82.671875 586.148438 83.726562 585.050781 C 84.785156 583.953125 85.871094 582.878906 86.980469 581.835938 C 88.089844 580.789062 89.226562 579.773438 90.386719 578.78125 C 91.546875 577.792969 92.734375 576.832031 93.941406 575.902344 C 95.148438 574.972656 96.378906 574.070312 97.628906 573.199219 C 98.882812 572.328125 100.15625 571.488281 101.449219 570.679688 C 102.742188 569.871094 104.054688 569.09375 105.382812 568.351562 C 106.714844 567.605469 108.0625 566.894531 109.429688 566.21875 C 110.796875 565.539062 112.179688 564.898438 113.578125 564.285156 C 114.972656 563.675781 116.386719 563.101562 117.8125 562.5625 C 119.238281 562.019531 120.675781 561.515625 122.128906 561.046875 C 123.578125 560.574219 125.039062 560.140625 126.511719 559.742188 C 127.984375 559.34375 129.464844 558.984375 130.957031 558.65625 C 132.445312 558.332031 133.941406 558.042969 135.445312 557.792969 C 136.949219 557.539062 138.460938 557.324219 139.976562 557.144531 C 141.488281 556.96875 143.007812 556.828125 144.53125 556.722656 C 146.050781 556.621094 147.574219 556.554688 149.097656 556.527344 C 150.625 556.5 152.148438 556.507812 153.671875 556.554688 C 155.195312 556.597656 156.71875 556.683594 158.238281 556.804688 C 159.761719 556.925781 161.277344 557.082031 162.789062 557.277344 C 164.300781 557.472656 165.808594 557.707031 167.308594 557.976562 C 168.808594 558.246094 170.304688 558.550781 171.789062 558.894531 C 173.277344 559.238281 174.753906 559.617188 176.21875 560.03125 C 177.6875 560.445312 179.144531 560.898438 180.589844 561.386719 C 182.035156 561.871094 183.46875 562.394531 184.886719 562.949219 C 186.308594 563.507812 187.710938 564.101562 189.101562 564.726562 C 190.492188 565.351562 191.867188 566.011719 193.226562 566.707031 C 194.585938 567.398438 195.925781 568.125 197.246094 568.886719 C 198.570312 569.644531 199.871094 570.4375 201.15625 571.257812 C 202.441406 572.082031 203.703125 572.9375 204.945312 573.820312 C 206.1875 574.707031 207.40625 575.621094 208.601562 576.566406 C 209.800781 577.511719 210.972656 578.488281 212.121094 579.492188 C 213.269531 580.492188 214.394531 581.523438 215.492188 582.582031 C 216.589844 583.640625 217.664062 584.722656 218.707031 585.835938 C 219.753906 586.945312 220.769531 588.082031 221.761719 589.242188 C 222.75 590.402344 223.710938 591.585938 224.640625 592.792969 C 225.570312 594 226.472656 595.230469 227.34375 596.484375 C 228.214844 597.734375 229.054688 599.007812 229.863281 600.300781 C 230.671875 601.59375 231.449219 602.90625 232.191406 604.238281 C 232.9375 605.570312 233.648438 606.917969 234.324219 608.285156 C 235.003906 609.652344 235.644531 611.03125 236.257812 612.429688 C 236.867188 613.828125 237.441406 615.238281 237.980469 616.667969 C 238.523438 618.09375 239.027344 619.53125 239.496094 620.980469 C 239.96875 622.433594 240.402344 623.894531 240.800781 625.367188 C 241.199219 626.839844 241.558594 628.320312 241.886719 629.808594 C 242.210938 631.300781 242.5 632.796875 242.75 634.300781 C 243.003906 635.804688 243.21875 637.3125 243.398438 638.828125 C 243.574219 640.34375 243.714844 641.863281 243.820312 643.382812 C 243.921875 644.90625 243.988281 646.429688 244.015625 647.953125 C 244.042969 649.476562 244.035156 651.003906 243.988281 652.527344 C 243.945312 654.050781 243.859375 655.574219 243.738281 657.09375 C 243.617188 658.613281 243.460938 660.128906 243.265625 661.644531 C 243.070312 663.15625 242.835938 664.660156 242.566406 666.164062 C 242.296875 667.664062 241.992188 669.15625 241.648438 670.644531 C 241.304688 672.128906 240.925781 673.605469 240.511719 675.074219 C 240.097656 676.542969 239.644531 677.996094 239.15625 679.441406 C 238.671875 680.886719 238.148438 682.320312 237.59375 683.742188 C 237.035156 685.160156 236.441406 686.566406 235.816406 687.957031 C 235.191406 689.347656 234.53125 690.722656 233.835938 692.078125 C 233.144531 693.4375 232.417969 694.777344 231.65625 696.101562 C 230.898438 697.421875 230.105469 698.726562 229.285156 700.011719 C 228.460938 701.292969 227.605469 702.558594 226.722656 703.796875 C 225.835938 705.039062 224.921875 706.257812 223.976562 707.457031 C 223.03125 708.652344 222.054688 709.824219 221.050781 710.976562 C 220.050781 712.125 219.019531 713.246094 217.960938 714.347656 C 216.902344 715.445312 215.820312 716.515625 214.707031 717.5625 C 213.597656 718.605469 212.460938 719.625 211.300781 720.613281 C 210.140625 721.601562 208.957031 722.5625 207.75 723.496094 Z M 207.75 723.496094 " clip-rule="nonzero"/></clipPath><linearGradient x1="19.132" gradientTransform="matrix(2.974308, 3.857216, -3.857216, 2.974308, 168.70078, 518.254044)" y1="-7.455078" x2="19.132" gradientUnits="userSpaceOnUse" y2="28.304175" id="3fc8fdf8f7"><stop stop-opacity="1" stop-color="rgb(100%, 100%, 100%)" offset="0"/><stop stop-opacity="1" stop-color="rgb(100%, 100%, 100%)" offset="0.125"/><stop stop-opacity="1" stop-color="rgb(100%, 100%, 100%)" offset="0.1875"/><stop stop-opacity="1" stop-color="rgb(99.998474%, 99.960327%, 99.952698%)" offset="0.21875"/><stop stop-opacity="1" stop-color="rgb(99.993896%, 99.830627%, 99.795532%)" offset="0.226562"/><stop stop-opacity="1" stop-color="rgb(99.987793%, 99.647522%, 99.575806%)" offset="0.234375"/><stop stop-opacity="1" stop-color="rgb(99.981689%, 99.464417%, 99.354553%)" offset="0.242188"/><stop stop-opacity="1" stop-color="rgb(99.975586%, 99.281311%, 99.134827%)" offset="0.25"/><stop stop-opacity="1" stop-color="rgb(99.971008%, 99.098206%, 98.913574%)" offset="0.257812"/><stop stop-opacity="1" stop-color="rgb(99.964905%, 98.913574%, 98.693848%)" offset="0.265625"/><stop stop-opacity="1" stop-color="rgb(99.958801%, 98.730469%, 98.472595%)" offset="0.273438"/><stop stop-opacity="1" stop-color="rgb(99.952698%, 98.547363%, 98.252869%)" offset="0.28125"/><stop stop-opacity="1" stop-color="rgb(99.946594%, 98.364258%, 98.031616%)" offset="0.289062"/><stop stop-opacity="1" stop-color="rgb(99.940491%, 98.181152%, 97.81189%)" offset="0.296875"/><stop stop-opacity="1" stop-color="rgb(99.935913%, 97.998047%, 97.590637%)" offset="0.304688"/><stop stop-opacity="1" stop-color="rgb(99.92981%, 97.814941%, 97.370911%)" offset="0.3125"/><stop stop-opacity="1" stop-color="rgb(99.923706%, 97.631836%, 97.149658%)" offset="0.320312"/><stop stop-opacity="1" stop-color="rgb(99.917603%, 97.44873%, 96.929932%)" offset="0.328125"/><stop stop-opacity="1" stop-color="rgb(99.911499%, 97.265625%, 96.708679%)" offset="0.335938"/><stop stop-opacity="1" stop-color="rgb(99.905396%, 97.080994%, 96.488953%)" offset="0.34375"/><stop stop-opacity="1" stop-color="rgb(99.900818%, 96.897888%, 96.2677%)" offset="0.351562"/><stop stop-opacity="1" stop-color="rgb(99.894714%, 96.714783%, 96.047974%)" offset="0.359375"/><stop stop-opacity="1" stop-color="rgb(99.888611%, 96.531677%, 95.826721%)" offset="0.367188"/><stop stop-opacity="1" stop-color="rgb(99.882507%, 96.348572%, 95.606995%)" offset="0.375"/><stop stop-opacity="1" stop-color="rgb(99.876404%, 96.165466%, 95.385742%)" offset="0.382812"/><stop stop-opacity="1" stop-color="rgb(99.871826%, 95.982361%, 95.166016%)" offset="0.390625"/><stop stop-opacity="1" stop-color="rgb(99.865723%, 95.799255%, 94.944763%)" offset="0.398438"/><stop stop-opacity="1" stop-color="rgb(99.859619%, 95.61615%, 94.725037%)" offset="0.40625"/><stop stop-opacity="1" stop-color="rgb(99.853516%, 95.433044%, 94.503784%)" offset="0.414062"/><stop stop-opacity="1" stop-color="rgb(99.847412%, 95.249939%, 94.284058%)" offset="0.421875"/><stop stop-opacity="1" stop-color="rgb(99.841309%, 95.065308%, 94.062805%)" offset="0.429688"/><stop stop-opacity="1" stop-color="rgb(99.836731%, 94.882202%, 93.843079%)" offset="0.4375"/><stop stop-opacity="1" stop-color="rgb(99.830627%, 94.699097%, 93.621826%)" offset="0.445312"/><stop stop-opacity="1" stop-color="rgb(99.824524%, 94.515991%, 93.4021%)" offset="0.453125"/><stop stop-opacity="1" stop-color="rgb(99.81842%, 94.332886%, 93.180847%)" offset="0.460938"/><stop stop-opacity="1" stop-color="rgb(99.812317%, 94.14978%, 92.961121%)" offset="0.46875"/><stop stop-opacity="1" stop-color="rgb(99.806213%, 93.966675%, 92.739868%)" offset="0.476562"/><stop stop-opacity="1" stop-color="rgb(99.801636%, 93.783569%, 92.520142%)" offset="0.484375"/><stop stop-opacity="1" stop-color="rgb(99.795532%, 93.600464%, 92.298889%)" offset="0.492188"/><stop stop-opacity="1" stop-color="rgb(99.789429%, 93.417358%, 92.079163%)" offset="0.5"/><stop stop-opacity="1" stop-color="rgb(99.783325%, 93.232727%, 91.85791%)" offset="0.507812"/><stop stop-opacity="1" stop-color="rgb(99.777222%, 93.049622%, 91.638184%)" offset="0.515625"/><stop stop-opacity="1" stop-color="rgb(99.771118%, 92.866516%, 91.416931%)" offset="0.523438"/><stop stop-opacity="1" stop-color="rgb(99.766541%, 92.683411%, 91.197205%)" offset="0.53125"/><stop stop-opacity="1" stop-color="rgb(99.760437%, 92.500305%, 90.975952%)" offset="0.539062"/><stop stop-opacity="1" stop-color="rgb(99.754333%, 92.3172%, 90.756226%)" offset="0.546875"/><stop stop-opacity="1" stop-color="rgb(99.74823%, 92.134094%, 90.534973%)" offset="0.554687"/><stop stop-opacity="1" stop-color="rgb(99.742126%, 91.950989%, 90.315247%)" offset="0.5625"/><stop stop-opacity="1" stop-color="rgb(99.736023%, 91.767883%, 90.093994%)" offset="0.570313"/><stop stop-opacity="1" stop-color="rgb(99.731445%, 91.584778%, 89.874268%)" offset="0.578125"/><stop stop-opacity="1" stop-color="rgb(99.725342%, 91.400146%, 89.653015%)" offset="0.585938"/><stop stop-opacity="1" stop-color="rgb(99.719238%, 91.217041%, 89.433289%)" offset="0.59375"/><stop stop-opacity="1" stop-color="rgb(99.713135%, 91.033936%, 89.212036%)" offset="0.601563"/><stop stop-opacity="1" stop-color="rgb(99.707031%, 90.85083%, 88.99231%)" offset="0.609375"/><stop stop-opacity="1" stop-color="rgb(99.700928%, 90.667725%, 88.771057%)" offset="0.617188"/><stop stop-opacity="1" stop-color="rgb(99.69635%, 90.484619%, 88.551331%)" offset="0.625"/><stop stop-opacity="1" stop-color="rgb(99.690247%, 90.301514%, 88.330078%)" offset="0.632813"/><stop stop-opacity="1" stop-color="rgb(99.684143%, 90.118408%, 88.110352%)" offset="0.640625"/><stop stop-opacity="1" stop-color="rgb(99.67804%, 89.935303%, 87.889099%)" offset="0.648438"/><stop stop-opacity="1" stop-color="rgb(99.671936%, 89.752197%, 87.669373%)" offset="0.65625"/><stop stop-opacity="1" stop-color="rgb(99.667358%, 89.567566%, 87.44812%)" offset="0.664063"/><stop stop-opacity="1" stop-color="rgb(99.661255%, 89.38446%, 87.228394%)" offset="0.671875"/><stop stop-opacity="1" stop-color="rgb(99.655151%, 89.201355%, 87.007141%)" offset="0.679688"/><stop stop-opacity="1" stop-color="rgb(99.649048%, 89.01825%, 86.787415%)" offset="0.6875"/><stop stop-opacity="1" stop-color="rgb(99.642944%, 88.835144%, 86.566162%)" offset="0.695312"/><stop stop-opacity="1" stop-color="rgb(99.636841%, 88.652039%, 86.346436%)" offset="0.703125"/><stop stop-opacity="1" stop-color="rgb(99.632263%, 88.468933%, 86.125183%)" offset="0.710938"/><stop stop-opacity="1" stop-color="rgb(99.62616%, 88.285828%, 85.905457%)" offset="0.71875"/><stop stop-opacity="1" stop-color="rgb(99.620056%, 88.102722%, 85.684204%)" offset="0.726562"/><stop stop-opacity="1" stop-color="rgb(99.613953%, 87.919617%, 85.464478%)" offset="0.734375"/><stop stop-opacity="1" stop-color="rgb(99.607849%, 87.734985%, 85.243225%)" offset="0.742188"/><stop stop-opacity="1" stop-color="rgb(99.601746%, 87.55188%, 85.023499%)" offset="0.75"/><stop stop-opacity="1" stop-color="rgb(99.597168%, 87.368774%, 84.802246%)" offset="0.757812"/><stop stop-opacity="1" stop-color="rgb(99.591064%, 87.185669%, 84.58252%)" offset="0.765625"/><stop stop-opacity="1" stop-color="rgb(99.584961%, 87.002563%, 84.361267%)" offset="0.773438"/><stop stop-opacity="1" stop-color="rgb(99.578857%, 86.819458%, 84.141541%)" offset="0.78125"/><stop stop-opacity="1" stop-color="rgb(99.572754%, 86.636353%, 83.920288%)" offset="0.789062"/><stop stop-opacity="1" stop-color="rgb(99.56665%, 86.453247%, 83.700562%)" offset="0.796875"/><stop stop-opacity="1" stop-color="rgb(99.562073%, 86.270142%, 83.479309%)" offset="0.804687"/><stop stop-opacity="1" stop-color="rgb(99.555969%, 86.087036%, 83.259583%)" offset="0.8125"/><stop stop-opacity="1" stop-color="rgb(99.549866%, 85.902405%, 83.03833%)" offset="0.820312"/><stop stop-opacity="1" stop-color="rgb(99.543762%, 85.719299%, 82.818604%)" offset="0.828125"/><stop stop-opacity="1" stop-color="rgb(99.537659%, 85.536194%, 82.597351%)" offset="0.835937"/><stop stop-opacity="1" stop-color="rgb(99.531555%, 85.353088%, 82.377625%)" offset="0.84375"/><stop stop-opacity="1" stop-color="rgb(99.526978%, 85.169983%, 82.156372%)" offset="0.851562"/><stop stop-opacity="1" stop-color="rgb(99.520874%, 84.986877%, 81.936646%)" offset="0.859375"/><stop stop-opacity="1" stop-color="rgb(99.514771%, 84.803772%, 81.715393%)" offset="0.867188"/><stop stop-opacity="1" stop-color="rgb(99.508667%, 84.620667%, 81.495667%)" offset="0.875"/><stop stop-opacity="1" stop-color="rgb(99.502563%, 84.437561%, 81.274414%)" offset="0.882813"/><stop stop-opacity="1" stop-color="rgb(99.497986%, 84.254456%, 81.054688%)" offset="0.890625"/><stop stop-opacity="1" stop-color="rgb(99.491882%, 84.069824%, 80.833435%)" offset="0.898438"/><stop stop-opacity="1" stop-color="rgb(99.485779%, 83.886719%, 80.613708%)" offset="0.90625"/><stop stop-opacity="1" stop-color="rgb(99.479675%, 83.703613%, 80.392456%)" offset="0.914063"/><stop stop-opacity="1" stop-color="rgb(99.473572%, 83.520508%, 80.172729%)" offset="0.921875"/><stop stop-opacity="1" stop-color="rgb(99.467468%, 83.337402%, 79.951477%)" offset="0.929688"/><stop stop-opacity="1" stop-color="rgb(99.462891%, 83.154297%, 79.73175%)" offset="0.9375"/><stop stop-opacity="1" stop-color="rgb(99.456787%, 82.971191%, 79.510498%)" offset="0.945313"/><stop stop-opacity="1" stop-color="rgb(99.450684%, 82.788086%, 79.290771%)" offset="0.953125"/><stop stop-opacity="1" stop-color="rgb(99.44458%, 82.60498%, 79.069519%)" offset="0.960938"/><stop stop-opacity="1" stop-color="rgb(99.438477%, 82.421875%, 78.849792%)" offset="0.96875"/><stop stop-opacity="1" stop-color="rgb(99.432373%, 82.237244%, 78.62854%)" offset="0.976562"/><stop stop-opacity="1" stop-color="rgb(99.427795%, 82.054138%, 78.408813%)" offset="0.984375"/><stop stop-opacity="1" stop-color="rgb(99.421692%, 81.871033%, 78.187561%)" offset="0.992188"/><stop stop-opacity="1" stop-color="rgb(99.415588%, 81.687927%, 77.967834%)" offset="1"/></linearGradient></defs><rect x="-96" width="1152" fill="#ffffff" y="-60" height="719.999999" fill-opacity="1"/><rect x="-96" fill="url(#e4181738dd)" width="1152" y="-60" height="719.999999"/><g clip-path="url(#a6363fa5e5)"><g clip-path="url(#a2e29b06de)"><g clip-path="url(#115bb0fa2b)"><g clip-path="url(#bb436ed77d)"><path fill="url(#6a0864ce9f)" d="M 122.660156 431.761719 L -32 551.023438 L 75.269531 690.136719 L 229.933594 570.878906 Z M 122.660156 431.761719 " fill-rule="nonzero"/></g></g></g></g><g clip-path="url(#2524c52fab)"><g clip-path="url(#99ff809a73)"><g clip-path="url(#176640f488)"><g clip-path="url(#c94ee5f486)"><path fill="url(#3fc8fdf8f7)" d="M 174.539062 466.359375 L 36.609375 572.71875 L 127.148438 690.136719 L 265.082031 583.777344 Z M 174.539062 466.359375 " fill-rule="nonzero"/></g></g></g></g></svg>